<?xml version="1.0" encoding="iso-8859-1"?>
<!-- Uploaded to: SVG Repo, www.svgrepo.com, Generator: SVG Repo Mixer Tools -->
<svg height="800px" width="800px" version="1.1" id="Layer_1" xmlns="http://www.w3.org/2000/svg" xmlns:xlink="http://www.w3.org/1999/xlink" 
	 viewBox="0 0 512 512" xml:space="preserve">
<path style="fill:#FFFFFF;" d="M256,506C117.928,506,6,394.072,6,256S117.928,6,256,6s250,111.928,250,250
	C505.848,394.008,394.008,505.848,256,506z"/>
<path style="fill:#E04F5F;" d="M256,12c134.76,0,244,109.24,244,244S390.76,500,256,500S12,390.76,12,256
	C12.152,121.304,121.304,12.152,256,12 M256,0C114.616,0,0,114.616,0,256s114.616,256,256,256s256-114.616,256-256S397.384,0,256,0z
	"/>
<path style="fill:#FFFFFF;" d="M256,471.536c-119.04,0-215.544-96.504-215.544-215.544S136.96,40.448,256,40.448
	s215.544,96.504,215.544,215.544V256C471.408,374.984,374.984,471.408,256,471.536z"/>
<path style="fill:#AAC1CE;" d="M256,44.456c116.832,0,211.544,94.712,211.544,211.544S372.832,467.544,256,467.544
	S44.456,372.832,44.456,256l0,0C44.592,139.224,139.224,44.592,256,44.456 M256,36.456C134.752,36.456,36.456,134.752,36.456,256
	S134.752,475.544,256,475.544S475.544,377.248,475.544,256l0,0C475.544,134.752,377.248,36.456,256,36.456z"/>
<g>
	<path style="fill:#25B6D2;" d="M83.928,259.304L201.32,204.8v25.92l-88.776,38.88v0.488l88.8,38.888v25.92l-117.416-54.56
		C83.928,280.336,83.928,259.304,83.928,259.304z"/>
	<path style="fill:#25B6D2;" d="M219.448,344.656l52.336-177.32h24.696l-52.336,177.32H219.448z"/>
	<path style="fill:#25B6D2;" d="M428.072,281.064L310.68,334.872v-25.92l90.736-38.888V269.6l-90.736-38.912V204.8l117.392,53.808
		V281.064z"/>
</g>
</svg>